<svg width="96" height="106" viewBox="0 0 96 106" fill="none" xmlns="http://www.w3.org/2000/svg">
<mask id="mask0_394_620" style="mask-type:alpha" maskUnits="userSpaceOnUse" x="0" y="0" width="96" height="96">
<circle cx="47.9145" cy="47.9145" r="47.9145" fill="#D9D9D9"/>
</mask>
<g mask="url(#mask0_394_620)">
<circle cx="47.9145" cy="47.9145" r="47.9145" fill="#6B7280"/>
<path d="M82.5891 64.573C84.6709 59.0478 81.3801 45.8728 68.3998 40.0185C55.4195 34.1642 32.9856 34.6533 28.2456 55.9043" stroke="#2F3845" stroke-width="5.66664"/>
<path d="M34.6765 62.9466C34.0679 67.1042 32.1257 73.295 28.6962 75.3476C25.9141 77.0127 21.6742 74.9705 20.1926 74.7537C16.8849 74.2695 15.097 67.7725 16.1992 60.2421C17.3014 52.7117 20.8764 46.9996 24.1841 47.4838C25.5145 47.6785 30.4575 47.6067 32.4639 49.6068C35.4461 52.5796 35.3354 58.445 34.6765 62.9466Z" fill="#2F3845"/>
<path d="M61.9075 32.2167C61.8214 32.2237 61.7386 32.253 61.6673 32.3017C59.064 34.2661 55.4231 42.6812 52.9519 49.0128L57.0447 51.4534C57.2138 48.1545 65.5318 37.729 67.4747 35.3517C67.5222 35.2931 67.5553 35.2242 67.5714 35.1506C67.5874 35.0769 67.5861 35.0005 67.5673 34.9275C67.5486 34.8545 67.513 34.7868 67.4634 34.73C67.4138 34.6732 67.3516 34.6288 67.2818 34.6004L62.1584 32.2617C62.0801 32.2252 61.9936 32.2097 61.9075 32.2167Z" fill="#33BC4A"/>
<path d="M84.0983 92.0549C86.8847 81.1371 90.272 62.9762 83.1492 53.6837C76.0264 44.3912 70.2798 50.957 70.2798 50.957C70.2798 50.957 61.2458 43.8097 56.196 51.1527C53.6709 46.8253 48.5738 46.575 45.1742 48.0159C40.1907 40.6486 26.7967 41.813 22.9879 54.7139C19.1791 67.6148 19.5308 80.0956 22.9879 91.3023C26.9062 104.003 31.0221 109.178 45.4354 106.935C49.6387 110.358 58.1972 109.777 61.8817 106.795C74.5741 105.498 81.79 101.099 84.0983 92.0549Z" fill="#FF6741"/>
<path d="M50.4924 73.5921C50.5902 78.3482 48.0694 83.4879 43.3133 83.5857C38.5573 83.6834 33.4175 81.1626 33.3198 76.4066C33.222 71.6505 35.7428 66.5108 40.4989 66.413C45.2549 66.3153 50.3947 68.8361 50.4924 73.5921Z" fill="white"/>
<path d="M65.2553 73.2887C65.353 78.0448 62.8322 83.1845 58.0762 83.2823C53.3201 83.38 48.1804 80.8592 48.0826 76.1032C47.9849 71.3471 50.5057 66.2074 55.2617 66.1096C60.0178 66.0119 65.1575 68.5327 65.2553 73.2887Z" fill="white"/>
<circle cx="40.3836" cy="74.7257" r="3.69147" transform="rotate(-1.17743 40.3836 74.7257)" fill="#221815"/>
<circle cx="55.1469" cy="74.4223" r="3.69147" transform="rotate(-1.17743 55.1469 74.4223)" fill="#221815"/>
<path d="M43.2456 55.5321C41.8931 55.4242 40.5001 55.6958 39.3159 56.3352C38.1317 56.9746 37.1345 58.0516 36.6752 59.3386C36.5577 59.669 36.475 60.0104 36.4985 60.3582C36.522 60.7061 36.6523 61.0514 36.9045 61.2886C37.4011 61.7448 38.216 61.6338 38.8053 61.2873C39.3946 60.9408 39.8357 60.3988 40.375 59.996C42.0571 58.7559 44.3135 59.1934 45.6815 60.67C46.8409 61.9209 47.219 62.2812 48.1311 61.883C49.0343 61.4843 49.1132 60.4676 48.8528 59.6259C48.4805 58.4311 47.5743 57.3997 46.5688 56.6909C45.5633 55.9821 44.4387 55.6304 43.2456 55.5321Z" fill="#221815"/>
<path d="M58.9652 57.7713C60.3192 57.8578 61.659 58.3258 62.7396 59.1279C63.8203 59.9301 64.6533 61.1385 64.9239 62.4779C64.993 62.8218 65.026 63.1715 64.953 63.5124C64.88 63.8533 64.7017 64.1764 64.4182 64.3751C63.8615 64.7556 63.0708 64.5293 62.5371 64.1021C62.0034 63.6749 61.6443 63.0755 61.1681 62.5997C59.6805 61.1319 57.3848 61.2423 55.8198 62.5082C54.4935 63.5806 54.0678 63.8831 53.222 63.3586C52.385 62.8348 52.4523 61.8173 52.8303 61.0215C53.3696 59.8922 54.4139 59.0009 55.5104 58.4432C56.6068 57.8854 57.7702 57.698 58.9652 57.7713Z" fill="#221815"/>
<path d="M32.4541 15.1748H22.7275V16.6543H30.5791C30.5718 18.2217 30.5498 20.0967 30.0371 22.6162L31.9121 22.8066C32.4468 19.9795 32.4468 18.1045 32.4541 16.4346V15.1748ZM21.4678 25.7217H33.626V24.1982H27.6787V19.6133H25.8184V24.1982H21.4678V25.7217ZM45.8867 14.0322H44.1143V17.0938H42.9131V14.2666H41.1553V21.7812H42.9131V18.6172H44.1143V21.8398H45.8867V14.0322ZM34.2852 20.5361L35.1641 21.9277C38.6431 20.5581 40.2471 18.2949 40.2471 14.9404H34.9297V16.4346H38.3428C38.0571 18.2437 36.8047 19.6206 34.2852 20.5361ZM36.585 23.8613H44.0264V27.3477H45.8867V22.3525H36.585V23.8613ZM58.8506 14.0176H57.0781V23.9932H58.8506V14.0176ZM47.2344 20.8438L48.2598 22.2646C49.439 21.7153 50.2373 20.7485 50.7061 19.584C51.1455 20.6021 51.8633 21.4443 52.9326 21.9424L53.9727 20.5068C52.2588 19.7231 51.5923 18.1924 51.5996 16.6543V14.9111H49.7832V16.6543C49.7832 18.229 49.0508 19.9722 47.2344 20.8438ZM49.8125 27.1133H59.1875V25.6191H51.6875V22.8213H49.8125V27.1133ZM52.7568 18.5879H54.3828V23.5977H56.1553V14.2227H54.3828V17.0645H52.7568V18.5879ZM71.6094 14.0176H69.7637V18.7197H67.4199V20.2285H69.7637V27.377H71.6094V14.0176ZM60.9746 24.3594H62.0293C64.3145 24.3521 66.0576 24.2861 68.0059 23.9932L67.8154 22.499C66.1675 22.7554 64.688 22.8213 62.835 22.8359V20.3164H66.7168V18.8516H62.835V16.6396H67.2002V15.1309H60.9746V24.3594Z" fill="white"/>
<path d="M82.5891 64.573C84.6708 59.0478 81.38 45.8727 68.3997 40.0185" stroke="#2F3845" stroke-width="5.66664"/>
</g>
<path d="M81.2559 76.3526C80.7111 84.2643 69.5 98 49 96" stroke="#2F3845" stroke-width="3.79644"/>
<rect x="41" y="92.1925" width="13.0164" height="7.86406" rx="3" fill="#2F3845"/>
<path d="M93.7138 68.6685C93.2664 73.0687 91.5105 79.6687 87.9992 81.9858C85.1506 83.8656 80.5975 81.9144 79.0296 81.7549C75.5288 81.3989 73.348 74.6495 74.1585 66.6798C74.969 58.71 78.464 52.5379 81.9647 52.8939C83.3727 53.0371 88.5672 52.7328 90.7697 54.7432C94.0433 57.7312 94.1984 63.9043 93.7138 68.6685Z" fill="#2F3845"/>
</svg>
